<svg width="17" height="17" viewBox="0 0 17 17" fill="none" xmlns="http://www.w3.org/2000/svg">
<path d="M0.628794 16.2497C0.540598 16.2502 0.453288 16.2321 0.372602 16.1965C0.291917 16.1609 0.219683 16.1086 0.160649 16.043C0.101616 15.9775 0.0571193 15.9002 0.030085 15.8163C0.00305073 15.7323 -0.00590924 15.6436 0.00379409 15.5559L0.485044 11.1809C0.502176 11.0411 0.566045 10.9112 0.666294 10.8122L10.8913 0.587199C11.0771 0.401059 11.2977 0.253383 11.5406 0.152623C11.7835 0.051864 12.0439 0 12.3069 0C12.5699 0 12.8303 0.051864 13.0732 0.152623C13.3161 0.253383 13.5368 0.401059 13.7225 0.587199L15.6663 2.53095C15.8524 2.71672 16.0001 2.93737 16.1009 3.18028C16.2016 3.4232 16.2535 3.68359 16.2535 3.94657C16.2535 4.20955 16.2016 4.46995 16.1009 4.71286C16.0001 4.95577 15.8524 5.17643 15.6663 5.3622L5.44754 15.5809C5.34857 15.6812 5.21862 15.7451 5.07879 15.7622L0.703794 16.2434L0.628794 16.2497ZM1.71004 11.5309L1.33504 14.9184L4.72254 14.5434L14.785 4.48095C14.855 4.41127 14.9104 4.32848 14.9483 4.23731C14.9862 4.14615 15.0056 4.04841 15.0056 3.9497C15.0056 3.85099 14.9862 3.75325 14.9483 3.66208C14.9104 3.57092 14.855 3.48813 14.785 3.41845L12.835 1.46845C12.7654 1.39853 12.6826 1.34305 12.5914 1.3052C12.5002 1.26734 12.4025 1.24786 12.3038 1.24786C12.2051 1.24786 12.1073 1.26734 12.0162 1.3052C11.925 1.34305 11.8422 1.39853 11.7725 1.46845L1.71004 11.5309Z" fill="#0884FF"/>
<path d="M13.7538 7.00596C13.6715 7.00643 13.59 6.99067 13.5139 6.95956C13.4377 6.92846 13.3685 6.88263 13.3101 6.82471L9.4288 2.93096C9.37053 2.87268 9.3243 2.8035 9.29276 2.72736C9.26123 2.65122 9.245 2.56962 9.245 2.48721C9.245 2.40479 9.26123 2.32319 9.29276 2.24705C9.3243 2.17091 9.37053 2.10173 9.4288 2.04346C9.48708 1.98518 9.55626 1.93896 9.6324 1.90742C9.70853 1.87588 9.79014 1.85965 9.87255 1.85965C9.95496 1.85965 10.0366 1.87588 10.1127 1.90742C10.1888 1.93896 10.258 1.98518 10.3163 2.04346L14.2101 5.93721C14.2686 5.99531 14.3151 6.06443 14.3469 6.1406C14.3786 6.21676 14.3949 6.29845 14.3949 6.38096C14.3949 6.46346 14.3786 6.54516 14.3469 6.62132C14.3151 6.69748 14.2686 6.7666 14.2101 6.82471C14.1502 6.88415 14.0789 6.93085 14.0005 6.962C13.9221 6.99315 13.8381 7.00811 13.7538 7.00596Z" fill="#0884FF"/>
<path d="M9.43206 5.93949L4.56628 10.8053L5.45017 11.6892L10.3159 6.82337L9.43206 5.93949Z" fill="#0884FF"/>
</svg>
